<?xml version="1.0" standalone="no"?>
<!DOCTYPE svg PUBLIC "-//W3C//DTD SVG 20010904//EN"
 "http://www.w3.org/TR/2001/REC-SVG-20010904/DTD/svg10.dtd">
<svg version="1.0" xmlns="http://www.w3.org/2000/svg"
 width="755.000000pt" height="240.000000pt" viewBox="0 0 755.000000 240.000000"
 preserveAspectRatio="xMidYMid meet">

<g transform="translate(0.000000,240.000000) scale(0.100000,-0.100000)"
fill="#363B66" stroke="none">
<path d="M3060 2090 c-123 -17 -194 -47 -252 -105 -63 -63 -82 -173 -39 -226
l19 -24 48 23 c122 57 119 55 115 92 -7 74 -7 74 34 95 33 17 60 20 155 20 95
0 122 -3 155 -20 42 -21 42 -21 29 -97 -6 -37 -5 -38 32 -53 22 -9 61 -25 87
-37 44 -20 49 -20 64 -6 9 9 18 39 21 67 12 126 -80 223 -243 259 -73 16 -162
21 -225 12z"/>
<path d="M3019 1899 c-17 -17 -20 -29 -16 -61 7 -54 -6 -78 -58 -110 -50 -31
-100 -94 -117 -149 -13 -44 2 -114 34 -154 l19 -25 264 0 c290 0 281 -2 292
64 3 20 10 39 14 42 17 10 9 51 -21 111 -23 47 -44 70 -91 104 -63 46 -69 58
-66 127 3 63 -14 72 -135 72 -86 0 -100 -2 -119 -21z m203 -186 c97 -98 -19
-252 -142 -188 -53 28 -76 109 -46 163 37 68 132 80 188 25z"/>
<path d="M3080 1692 c-40 -40 -41 -88 -4 -126 38 -37 86 -36 126 4 26 27 30
36 25 67 -8 47 -33 72 -80 80 -31 5 -40 1 -67 -25z"/>
</g>
</svg>
