<?xml version="1.0" standalone="no"?>
<!DOCTYPE svg PUBLIC "-//W3C//DTD SVG 20010904//EN"
 "http://www.w3.org/TR/2001/REC-SVG-20010904/DTD/svg10.dtd">
<svg version="1.0" xmlns="http://www.w3.org/2000/svg"
 width="350.000000pt" height="350.000000pt" viewBox="0 0 350.000000 350.000000"
 preserveAspectRatio="xMidYMid meet">

<g transform="translate(0.000000,350.000000) scale(0.100000,-0.100000)"
fill="#363B66" stroke="none">
<path d="M774 2511 c-18 -11 -45 -36 -60 -57 l-29 -37 0 -662 0 -661 27 -41
c16 -24 44 -49 70 -62 44 -21 47 -21 960 -21 655 0 925 3 949 11 47 16 107 76
119 119 6 21 10 280 10 656 l0 620 -25 50 c-15 29 -40 59 -62 74 l-38 25 -945
3 c-917 2 -946 2 -976 -17z m1917 -91 l24 -20 -35 -31 c-35 -31 -240 -202
-560 -467 -91 -75 -208 -174 -261 -219 -53 -46 -101 -83 -107 -83 -6 0 -39 24
-74 53 -35 29 -90 75 -123 101 -33 27 -76 63 -95 80 -19 17 -100 85 -180 151
-368 303 -490 406 -490 415 0 5 12 16 28 24 23 13 150 15 938 16 899 0 912 0
935 -20z m-1739 -282 c84 -70 227 -189 318 -264 91 -75 166 -142 168 -149 2
-10 -632 -543 -659 -553 -5 -2 -9 229 -9 548 0 476 2 551 14 548 8 -2 84 -60
168 -130z m1778 -418 c0 -302 -3 -550 -6 -550 -7 0 -39 26 -280 225 -324 269
-371 307 -385 316 -9 5 -10 11 -4 17 9 7 57 47 235 194 25 20 128 107 230 192
102 85 191 155 198 156 9 0 12 -116 12 -550z m-1155 -96 c113 -100 158 -134
175 -134 10 0 63 38 117 85 54 46 103 85 108 85 6 0 65 -46 131 -102 124 -106
548 -457 568 -470 8 -6 7 -11 -4 -18 -21 -14 -1842 -9 -1846 5 -2 6 36 42 82
80 47 39 93 77 102 85 10 8 71 59 137 112 66 53 176 144 245 202 69 57 130
105 135 105 6 0 28 -16 50 -35z"/>
</g>
</svg>
