<?xml version="1.0" standalone="no"?>
<!DOCTYPE svg PUBLIC "-//W3C//DTD SVG 20010904//EN"
 "http://www.w3.org/TR/2001/REC-SVG-20010904/DTD/svg10.dtd">
<svg version="1.0" xmlns="http://www.w3.org/2000/svg"
 width="512.000000pt" height="512.000000pt" viewBox="0 0 512.000000 512.000000"
 preserveAspectRatio="xMidYMid meet">

<g transform="translate(0.000000,512.000000) scale(0.100000,-0.100000)"
fill="#363B66" stroke="none">
<path d="M2340 4804 c-547 -65 -1002 -279 -1368 -642 -448 -445 -676 -991
-676 -1617 0 -539 169 -1018 507 -1434 141 -174 371 -376 568 -498 240 -149
529 -257 834 -310 145 -25 558 -25 707 0 646 109 1178 451 1539 991 182 271
303 586 356 926 24 159 24 491 0 650 -67 429 -240 811 -516 1142 -286 341
-712 612 -1137 723 -203 53 -314 67 -554 70 -124 2 -241 1 -260 -1z m472 -290
c843 -109 1524 -741 1693 -1573 154 -756 -145 -1534 -767 -1994 -525 -388
-1215 -492 -1838 -275 -116 40 -327 145 -430 214 -254 170 -473 401 -624 656
-358 610 -358 1396 0 2006 403 685 1181 1067 1966 966z"/>
<path d="M2530 4242 c-38 -6 -81 -41 -96 -78 -12 -28 -14 -175 -14 -839 0
-877 -2 -852 56 -892 16 -11 257 -117 536 -236 537 -230 553 -235 615 -197 64
39 84 136 40 201 -20 30 -68 53 -492 235 l-470 201 -5 759 c-4 581 -8 764 -17
781 -27 46 -94 75 -153 65z"/>
<path d="M957 2676 c-52 -19 -75 -42 -88 -87 -25 -81 18 -157 102 -179 60 -17
211 -8 244 14 85 56 85 186 0 242 -36 24 -205 30 -258 10z"/>
<path d="M3942 2681 c-116 -30 -138 -191 -35 -258 22 -15 48 -18 143 -18 104
0 118 2 148 23 83 60 83 174 1 233 -26 19 -47 23 -128 25 -53 2 -111 -1 -129
-5z"/>
<path d="M2501 1253 c-62 -33 -76 -62 -79 -176 -2 -57 1 -117 7 -139 34 -112
201 -123 256 -18 11 21 15 61 15 137 0 89 -3 114 -20 140 -39 65 -117 89 -179
56z"/>
</g>
</svg>
